<svg width="16" height="16" viewBox="0 0 16 16" fill="none" xmlns="http://www.w3.org/2000/svg">
<path d="M13.5687 2.43167C12.8388 1.6945 11.9704 1.10882 11.0134 0.708281C10.0564 0.307741 9.0297 0.100233 7.99228 0.0976801C6.95486 0.0951268 5.92716 0.297578 4.96822 0.693402C4.00928 1.08923 3.138 1.67062 2.40443 2.40419C1.67087 3.13776 1.08947 4.00904 0.693646 4.96798C0.297822 5.92692 0.0953709 6.95462 0.0979242 7.99204C0.100478 9.02946 0.307985 10.0561 0.708525 11.0131C1.10906 11.9701 1.69474 12.8385 2.43191 13.5685C3.16186 14.3056 4.03027 14.8913 4.98725 15.2919C5.94423 15.6924 6.97092 15.8999 8.00834 15.9025C9.04576 15.905 10.0735 15.7026 11.0324 15.3067C11.9913 14.9109 12.8626 14.3295 13.5962 13.5959C14.3298 12.8624 14.9112 11.9911 15.307 11.0322C15.7028 10.0732 15.9053 9.04551 15.9027 8.0081C15.9001 6.97068 15.6926 5.94399 15.2921 4.98701C14.8916 4.03003 14.3059 3.16162 13.5687 2.43167ZM5.75488 8.14702C5.72504 7.69047 5.8351 7.23568 6.07037 6.84328C6.30563 6.45089 6.65494 6.13954 7.07169 5.95076C7.48845 5.76197 7.95286 5.70473 8.40298 5.78665C8.85311 5.86858 9.26757 6.08578 9.59108 6.4093C9.9146 6.73281 10.1318 7.14727 10.2137 7.59739C10.2957 8.04752 10.2384 8.51193 10.0496 8.92868C9.86084 9.34544 9.54949 9.69474 9.1571 9.93001C8.7647 10.1653 8.30991 10.2753 7.85336 10.2455C7.30869 10.2094 6.79566 9.97669 6.40968 9.5907C6.02369 9.20472 5.791 8.69169 5.75488 8.14702ZM14.1924 5.80421L10.8044 6.00952C10.7812 6.01074 10.7581 6.00629 10.737 5.99655C10.7159 5.98681 10.6975 5.97207 10.6834 5.95362C10.5009 5.7145 10.2873 5.50085 10.0482 5.31835C10.0297 5.30426 10.015 5.28588 10.0052 5.2648C9.9955 5.24373 9.99104 5.22059 9.99226 5.19741L10.1976 1.8094C10.1988 1.78732 10.2053 1.76585 10.2164 1.74672C10.2275 1.7276 10.243 1.71137 10.2615 1.69935C10.2801 1.68733 10.3012 1.67985 10.3232 1.67753C10.3452 1.67521 10.3675 1.67812 10.3881 1.686C11.2826 2.02672 12.0948 2.55282 12.7715 3.22974C13.4482 3.90666 13.974 4.71909 14.3144 5.61366C14.3223 5.63432 14.3252 5.65656 14.3228 5.67855C14.3205 5.70055 14.3131 5.72168 14.301 5.74025C14.289 5.75881 14.2728 5.77428 14.2537 5.78539C14.2345 5.79651 14.2131 5.80295 14.191 5.80421H14.1924ZM5.80445 1.8094L6.00976 5.19741C6.01098 5.22059 6.00653 5.24373 5.99679 5.2648C5.98705 5.28588 5.97232 5.30426 5.95387 5.31835C5.71474 5.50085 5.50109 5.7145 5.31859 5.95362C5.3045 5.97207 5.28612 5.98681 5.26505 5.99655C5.24397 6.00629 5.22084 6.01074 5.19765 6.00952L1.80965 5.80421C1.78757 5.80295 1.76609 5.79651 1.74697 5.78539C1.72785 5.77428 1.71161 5.75881 1.69959 5.74025C1.68757 5.72168 1.6801 5.70055 1.67778 5.67855C1.67546 5.65656 1.67836 5.63432 1.68625 5.61366C2.0268 4.71895 2.55282 3.90644 3.22975 3.22951C3.90668 2.55258 4.7192 2.02655 5.6139 1.686C5.63457 1.67812 5.6568 1.67521 5.6788 1.67753C5.70079 1.67985 5.72193 1.68733 5.74049 1.69935C5.75906 1.71137 5.77452 1.7276 5.78564 1.74672C5.79675 1.76585 5.8032 1.78732 5.80445 1.8094ZM1.80965 10.1959L5.19765 9.99061C5.22084 9.98939 5.24397 9.99385 5.26505 10.0036C5.28612 10.0133 5.3045 10.0281 5.31859 10.0465C5.50109 10.2856 5.71474 10.4993 5.95387 10.6818C5.97232 10.6959 5.98705 10.7143 5.99679 10.7353C6.00653 10.7564 6.01098 10.7795 6.00976 10.8027L5.80445 14.1907C5.8032 14.2128 5.79675 14.2343 5.78564 14.2534C5.77452 14.2725 5.75906 14.2888 5.74049 14.3008C5.72193 14.3128 5.70079 14.3203 5.6788 14.3226C5.6568 14.3249 5.63457 14.322 5.6139 14.3141C4.7192 13.9736 3.90668 13.4476 3.22975 12.7706C2.55282 12.0937 2.0268 11.2812 1.68625 10.3865C1.67836 10.3658 1.67546 10.3436 1.67778 10.3216C1.6801 10.2996 1.68757 10.2785 1.69959 10.2599C1.71161 10.2413 1.72785 10.2259 1.74697 10.2147C1.76609 10.2036 1.78757 10.1972 1.80965 10.1959ZM10.1962 14.1907L9.99086 10.8027C9.98964 10.7795 9.99409 10.7564 10.0038 10.7353C10.0136 10.7143 10.0283 10.6959 10.0468 10.6818C10.2859 10.4993 10.4995 10.2856 10.682 10.0465C10.6961 10.0281 10.7145 10.0133 10.7356 10.0036C10.7567 9.99385 10.7798 9.98939 10.803 9.99061L14.191 10.1959C14.2131 10.1972 14.2345 10.2036 14.2537 10.2147C14.2728 10.2259 14.289 10.2413 14.301 10.2599C14.3131 10.2785 14.3205 10.2996 14.3228 10.3216C14.3252 10.3436 14.3223 10.3658 14.3144 10.3865C13.9738 11.2812 13.4478 12.0937 12.7709 12.7706C12.0939 13.4476 11.2814 13.9736 10.3867 14.3141C10.3661 14.322 10.3438 14.3249 10.3218 14.3226C10.2998 14.3203 10.2787 14.3128 10.2601 14.3008C10.2416 14.2888 10.2261 14.2725 10.215 14.2534C10.2039 14.2343 10.1974 14.2128 10.1962 14.1907Z" fill="black"/>
</svg>
